# xmcd
#
# Track frame offsets: 
#        150
#        18375
#        37875
#        56512
#        78455
#        98850
#        119750
#        139737
#        162232
#        184487
#
# Disc length: 2749 seconds
#
# Revision: 1
# Processed by: cddbd v1.5.2PL0 Copyright (c) Steve Scherf et al.
# Submitted via: ExactAudioCopyFreeDBPlugin 1.0
#
DISCID=850abb0a
DTITLE=THE PEPPER BOYS - Pepper Boys
DYEAR=1989
DGENRE=JPop
TTITLE0=DANCE DANCE
TTITLE1=LA LA LA
TTITLE2=Wonderland へでかけよう
TTITLE3=LORA
TTITLE4=HEY! BROTHER
TTITLE5=HEART TO HEART
TTITLE6=FOR YOUR LOVE (REMIX VERSION)
TTITLE7=BLUES が聴こえるかい？
TTITLE8=ダイアリーを閉じて
TTITLE9=KEEP ON LOVIN' YOU
EXTD=YEAR: 1989
EXTT0=
EXTT1=
EXTT2=
EXTT3=
EXTT4=
EXTT5=
EXTT6=
EXTT7=
EXTT8=
EXTT9=
PLAYORDER=
